<svg width="332px" height="323px" viewBox="0 0 332 323" xmlns="http://www.w3.org/2000/svg">
<defs>
<linearGradient id="a" x1="50.225%" x2="49.605%" y1="11.506%" y2="86.297%">
<stop stop-color="#191919" offset=".16"/>
<stop stop-color="#191919" stop-opacity="0" offset=".97"/>
</linearGradient>
</defs>
<g fill="none" fill-rule="evenodd">
<path d="m303.71 249.92c-0.21 0.16-0.42 0.33-0.64 0.48-0.21 0.16-0.43 0.31-0.65 0.47-0.41 0.29-0.83 0.57-1.26 0.84-0.05 0.03-0.1 0.06-0.15 0.1-0.35 0.22-0.7 0.44-1.06 0.65-0.53 0.32-1.05 0.62-1.59 0.92-3.66 2.04-7.51 3.68-11.44 5.13-3.71 1.36-7.47 2.55-11.26 3.61-5.43 1.52-10.93 2.78-16.48 3.88-5.39 1.08-10.8 1.99-16.23 2.78s-10.88 1.45-16.34 2.02c-1.79 0.19-3.58 0.36-5.37 0.53-3.59 0.33-7.18 0.61-10.77 0.85-1.8 0.12-3.6 0.23-5.39 0.33-4.03 0.23-8.06 0.4-12.09 0.53-0.73 0.02-1.46 0.05-2.2 0.07-0.67 0.02-1.34 0.04-2.02 0.06 1.65-2.04 3.3-4.07 4.81-6.22 0.22-0.27 0.44-0.54 0.65-0.82 3.41-4.58 6.67-9.26 9.79-14.03 0.32-0.02 0.64-0.03 0.95-0.05 1.98-0.11 3.96-0.24 5.94-0.37 1.5-0.1 3-0.21 4.5-0.33 10.49-0.81 20.94-1.97 31.34-3.6 3.03-0.47 6.04-0.99 9.04-1.54 7.02-1.3 13.98-2.86 20.84-4.82 1.51-0.43 3.01-0.88 4.51-1.35 0.75-0.24 1.5-0.48 2.25-0.73 1.13 0.2 2.16 0.67 3.22 1.06 0.93 0.34 1.86 0.7 2.79 1.07 2.63 1.04 5.21 2.19 7.71 3.52 0.99 0.52 1.96 1.07 2.92 1.65 1.27 0.77 2.51 1.58 3.67 2.51 0.34 0.27 0.44 0.38 0.31 0.54-0.06 0.08-0.16 0.16-0.32 0.28l0.02-0.02z" fill="#F1ECE2"/>
<path d="m283.42 239.3c-0.75 0.25-1.49 0.49-2.25 0.73-1.5 0.47-3 0.92-4.51 1.35-6.87 1.96-13.82 3.52-20.84 4.82-3 0.56-6.02 1.07-9.04 1.54-10.4 1.63-20.85 2.79-31.34 3.6-1.5 0.12-3 0.23-4.5 0.33-1.98 0.13-3.96 0.26-5.94 0.37-0.32 0.02-0.63 0.03-0.95 0.05 2.15-3.29 4.24-6.62 6.26-10 2.92-4.88 5.71-9.83 8.36-14.85 5.06 0.44 10.11 0.95 15.16 1.57 0.37 0.04 0.74 0.12 1.12 0.18 2.26 0.16 4.5 0.5 6.73 0.83 2.87 0.42 5.74 0.88 8.6 1.36 3.86 0.65 7.72 1.37 11.55 2.2 2.07 0.45 4.13 0.91 6.2 1.36 0.33 0.18 0.68 0.25 1.05 0.29 4.42 1.13 8.83 2.32 13.16 3.75 0.4 0.13 0.86 0.17 1.17 0.51l0.01 0.01z" fill="#FDBF41"/>
<path d="m78.59 311.4-0.01-0.01 0.01 0.01z" fill="#404A5A"/>
<path d="m78.23 311.22h0.01-0.01z" fill="#404A5A"/>
<path d="m76.87 310.34c0.1 0.07 0.22 0.12 0.33 0.17 0.08 0.04 0.16 0.07 0.24 0.11 0.14 0.07 0.27 0.16 0.36 0.29 0.03 0.04 0.06 0.1 0.09 0.16-0.47-0.04-0.88-0.23-1.24-0.53l0.22-0.2z" fill="#404A5A"/>
<path d="m108.94 295.28c-0.39 0.06-0.78 0.12-1.16 0.18-1.5 0.2-3 0.32-4.51 0.36-0.5 0.01-1.01 0.02-1.51 0.01-0.51 0-1.01-0.02-1.52-0.04-0.22-0.01-0.43-0.04-0.65-0.06-0.21-0.02-0.43-0.05-0.65-0.07-0.28-0.02-0.49-0.14-0.7-0.32-0.6-0.54-1.17-1.1-1.73-1.68 4.14 0.6 8.28 1.14 12.43 1.63v-0.01z" fill="#F1ECE2"/>
<path d="m174.08 225.37c-2.98 0-5.96 0.04-8.94 0.09-4.96 7.69-10.31 15.11-16.15 22.16-1.23 1.48-2.47 2.94-3.74 4.38-3.2 3.65-6.54 7.17-10.04 10.53-3.07 2.94-6.24 5.75-9.55 8.39-2.58 2.07-5.25 4.04-8.02 5.87-5.1 3.38-10.45 6.29-16.21 8.41-2.92 1.07-5.9 1.94-8.98 2.45-0.17 0.03-0.33 0.1-0.5 0.15 0.01 0.05 0.03 0.11 0.04 0.16 0.01 0.03 0.02 0.06 0.04 0.09 0.22 0.34 0.44 0.67 0.67 0.99 0.46 0.66 0.94 1.3 1.43 1.92 0.74 0.93 1.53 1.83 2.36 2.69 4.14 0.6 8.28 1.14 12.43 1.63 1.11-0.17 2.21-0.39 3.3-0.65 2.53-0.6 4.99-1.39 7.4-2.32 1.2-0.47 2.39-0.97 3.56-1.51s2.33-1.11 3.48-1.72c0.5-0.26 0.99-0.53 1.49-0.8 3.44-1.89 6.74-4.01 9.9-6.29 3.17-2.29 6.21-4.75 9.16-7.33 0.42-0.37 0.84-0.74 1.26-1.12 0.31-0.28 0.61-0.56 0.93-0.85 1.89-1.73 3.75-3.51 5.56-5.33 0.7-0.71 1.39-1.42 2.08-2.15 2.27-2.38 4.48-4.81 6.63-7.3 1.29-1.49 2.55-3.01 3.79-4.54 0.15-0.18 0.3-0.37 0.45-0.56 0.85-1.06 1.69-2.13 2.53-3.21 2.63-3.4 5.16-6.87 7.6-10.41 1.32-1.92 2.61-3.85 3.88-5.8 0.71-1.1 1.41-2.2 2.1-3.3 0.95-1.51 1.88-3.04 2.8-4.57-4.25-0.1-8.49-0.15-12.74-0.15z" fill="#F1ECE2"/>
<path d="m148.82 225.98c-2.13 0.1-4.26 0.22-6.38 0.35-2.33 3.3-4.74 6.55-7.26 9.72-2.47 3.12-5 6.18-7.66 9.15-1.51 1.68-3.03 3.35-4.59 4.99-1.1 1.16-2.22 2.31-3.37 3.43-4.57 4.47-9.36 8.69-14.51 12.5-0.86 0.63-1.72 1.25-2.6 1.86-2.89 2.01-5.88 3.87-8.99 5.54-2.25 1.22-4.57 2.3-6.92 3.29 0.02 0.11 0 0.23 0.05 0.34 0.33 0.91 0.68 1.8 1.06 2.69 0.37 0.89 0.77 1.76 1.19 2.62 0.84 1.72 1.78 3.4 2.8 5.04l0.02 0.02c0.07 0.1 0.19 0.19 0.28 0.28 0.17-0.05 0.33-0.12 0.5-0.15 3.07-0.51 6.05-1.38 8.98-2.45 5.76-2.11 11.11-5.03 16.21-8.41 2.77-1.83 5.44-3.8 8.02-5.87 3.31-2.65 6.48-5.46 9.55-8.39 3.51-3.36 6.84-6.88 10.04-10.53 1.27-1.44 2.51-2.9 3.74-4.38 5.84-7.05 11.19-14.47 16.15-22.16-5.44 0.1-10.89 0.26-16.32 0.53l0.01-0.01z" fill="#FDBF41"/>
<path d="m100.63 247.2c0.22 0.04 0.43 0.07 0.64 0.11-4.17 4.03-8.55 7.81-13.22 11.27-1.7 1.26-3.4 2.52-5.24 3.59-0.34-1.47-0.49-2.97-0.66-4.47-0.58-4.78-0.8-9.58-0.81-14.38 1.16 0.28 2.32 0.55 3.49 0.82 3.41 0.78 6.83 1.47 10.26 2.1 1.85 0.34 3.7 0.66 5.55 0.97l-0.01-0.01z" fill="#F1ECE2"/>
<path d="m119.73 228.28c-0.49 0.06-0.99 0.1-1.49 0.15-4.92 6.26-10.17 12.23-15.87 17.82-0.36 0.36-0.73 0.71-1.09 1.06 0.17 0.03 0.34 0.06 0.5 0.09-0.17-0.03-0.33-0.06-0.5-0.08-4.17 4.03-8.55 7.81-13.22 11.27-1.7 1.26-3.4 2.52-5.24 3.59 0.02 0.2 0.03 0.41 0.05 0.61 0 0.06 0 0.11 0.02 0.17 0.04 0.23 0.09 0.46 0.13 0.69 0.03 0.19 0.06 0.37 0.1 0.56 0.09 0.46 0.18 0.93 0.27 1.4 0.53 2.64 1.16 5.25 1.95 7.82 0.36 1.15 0.65 2.33 1.23 3.41 2.35-0.99 4.67-2.07 6.92-3.29 3.11-1.68 6.1-3.54 8.99-5.54 0.88-0.6 1.74-1.22 2.6-1.86 5.15-3.8 9.94-8.03 14.51-12.5 1.15-1.12 2.26-2.27 3.37-3.43 1.56-1.64 3.08-3.31 4.59-4.99 2.65-2.97 5.19-6.03 7.66-9.15 2.51-3.18 4.93-6.42 7.26-9.72-7.58 0.46-15.15 1.1-22.71 1.94l-0.03-0.02z" fill="#f10"/>
<path d="m95.08 246.23c1.85 0.34 3.7 0.66 5.55 0.97-1.85-0.31-3.71-0.63-5.55-0.97z" fill="#f10"/>
<path d="m114.99 228.89c1.07-0.23 2.16-0.35 3.25-0.46-4.92 6.26-10.17 12.23-15.87 17.82-0.36 0.36-0.73 0.71-1.09 1.06l-0.64-0.1c-1.85-0.31-3.7-0.63-5.55-0.97-3.43-0.63-6.86-1.32-10.26-2.1-1.16-0.27-2.33-0.54-3.49-0.82 0-1.81 0.02-3.63 0.07-5.45 0.03-1.08 0.08-2.15 0.14-3.22 3.95-0.94 7.93-1.77 11.92-2.53 6.82-1.29 13.68-2.34 20.56-3.19 0.11-0.01 0.22-0.03 0.33-0.04 0.13-0.02 0.26-0.03 0.39-0.02 0.08 0 0.16 0.02 0.24 0.04v-0.02z" fill="#FDBF41"/>
<path d="m236.64 141.49c3.98 0.49 7.97 0.97 11.95 1.46-0.02 0.04-0.05 0.08-0.09 0.12-2.47-0.3-4.95-0.59-7.42-0.91-0.72-0.09-1.44-0.15-2.16-0.23s-1.44-0.16-2.15-0.3c-0.04-0.05-0.08-0.09-0.13-0.13v-0.01z" fill="#007FFF"/>
<path d="m331.54 233.85v-16.43c-0.35-1.53-0.83-3.02-1.68-4.36-1.37-2.16-3-4.09-5.04-5.67-2.13-1.65-4.31-3.2-6.66-4.52-3.23-1.81-6.59-3.34-9.96-4.85-0.6-0.27-1.22-0.4-1.82-0.64-7.62-2.98-15.46-5.22-23.4-7.15-5.08-1.24-10.2-2.3-15.34-3.26-5.77-1.08-11.57-2.01-17.38-2.81-4.01-0.55-8.02-1.05-12.04-1.5-1.79-0.2-3.58-0.39-5.37-0.57-5.06-0.49-10.13-0.95-15.2-1.31-2.99-0.22-5.99-0.41-8.98-0.58-2.54-0.14-5.09-0.27-7.64-0.39-4.01-0.18-8.01-0.32-12.02-0.41-0.29 0-0.58-0.02-0.87-0.02-6.33-0.14-12.67-0.18-19-0.12h-0.31c-6.52 0.06-13.04 0.21-19.55 0.48-0.39 0.01-0.78 0.04-1.17 0.05-7.71 0.33-15.4 0.81-23.09 1.46-11.29 0.95-22.54 2.24-33.73 4-0.27 0.04-0.53 0.09-0.8 0.13-0.43 1.52-0.82 3.06-1.36 4.55-0.38 1.52-0.76 3.04-1.15 4.55-1.03 4.03-1.96 8.08-2.77 12.16 0.57-0.1 1.14-0.19 1.71-0.29 0.75-0.13 1.5-0.25 2.24-0.38l3.33-0.54c4.01-0.62 8.04-1.18 12.06-1.69 4.03-0.51 8.06-0.96 12.1-1.36 2.69-0.27 5.39-0.52 8.09-0.75 4.08-0.34 8.17-0.63 12.26-0.89 3.85-0.24 7.7-0.43 11.55-0.59 0.99-0.04 1.98-0.09 2.97-0.13 1.47-0.06 2.95-0.1 4.42-0.15 0.95-0.03 1.9-0.05 2.86-0.07 3.47-0.09 6.94-0.14 10.41-0.17 1.31 0 2.61-0.02 3.92-0.02 2.24 0 4.48 0 6.71 0.02 0.81 0 1.62 0.01 2.43 0.03l2.61 0.03c2.37 0.04 4.73 0.1 7.1 0.17s4.73 0.16 7.1 0.25c0.39 0.01 0.78 0.04 1.17 0.05 2.54 0.11 5.08 0.24 7.61 0.37 1.95 0.11 3.9 0.23 5.85 0.35 2.92 0.19 5.85 0.4 8.77 0.64 2.69 0.22 5.38 0.47 8.08 0.74 0.09 0 0.19 0.02 0.28 0.03 1.93 0.19 3.86 0.38 5.79 0.58 3.09 0.31 6.18 0.68 9.27 1.09 3.08 0.41 6.16 0.85 9.24 1.31 1.28 0.19 2.56 0.39 3.83 0.59 3.83 0.62 7.65 1.3 11.45 2.05 2.24 0.44 4.47 0.9 6.7 1.38s4.45 1 6.67 1.54c3.37 0.83 6.72 1.72 10.03 2.69 4.42 1.3 8.8 2.76 13.09 4.47 1.08 0.42 2.14 0.87 3.21 1.32 1.62 0.7 3.21 1.47 4.79 2.25 0.39 0.19 0.78 0.38 1.17 0.58 0.3 0.15 0.61 0.3 0.91 0.45 0.4 0.2 0.8 0.4 1.19 0.62 0.5 0.27 0.99 0.56 1.45 0.88 1.78 1.23 3.61 2.39 5.26 3.79 0.38 0.33 0.75 0.66 1.11 1.01 0.43 0.36 0.84 0.75 1.23 1.14 0.65 0.65 1.25 1.35 1.78 2.08 0.26 0.36 0.5 0.73 0.73 1.11 0.2 0.33 0.38 0.66 0.55 1s0.33 0.69 0.47 1.06c0.15 0.36 0.28 0.73 0.4 1.1 0.08 0.26 0.17 0.53 0.25 0.79s0 0.02 0.01 0.03v-0.03c0.21-1.11 0.08-2.23 0.09-3.35l0.03 0.03z" fill="#F1ECE2"/>
<path d="m331.6 215.26c0.01-4.15 0.01-8.29 0-12.44 0-1.91-0.02-3.83-0.03-5.74-0.33-1.08-0.56-2.19-1.05-3.22-1.25-2.59-3.12-4.67-5.28-6.53-2.36-2.04-4.97-3.73-7.71-5.22-3.97-2.18-8.09-4.04-12.34-5.61-4.92-1.82-9.91-3.43-14.97-4.81-3.87-1.05-7.76-2.02-11.66-2.91-4.45-1.01-8.92-1.9-13.41-2.69-4.66-0.81-9.34-1.59-14.03-2.24-2.22-0.31-4.45-0.6-6.68-0.88-4.98-0.64-9.97-1.2-14.97-1.64-0.93-0.09-1.85-0.22-2.78-0.29-3.78-0.29-7.56-0.57-11.33-0.84l-1.62-0.12c-2.52-0.18-5.04-0.36-7.56-0.49-3.28-0.16-6.56-0.28-9.84-0.4h-0.09c-3.43-0.12-6.85-0.25-10.28-0.31-3.02-0.05-6.04-0.08-9.07-0.09-1.33 0-2.66-0.01-4-0.01-5.3 0-10.59 0.08-15.88 0.23h-0.23c-6.21 0.18-12.43 0.43-18.63 0.83-4.77 0.3-9.54 0.57-14.3 0.97-1.93 0.16-3.85 0.4-5.77 0.59-6.71 0.67-13.4 1.45-20.07 2.39-0.08 0.01-0.15 0.02-0.23 0.03-2.67 6.91-5.07 13.91-7.18 21.02-0.05 0.18-0.1 0.35-0.15 0.53 0.26-0.04 0.53-0.09 0.8-0.13 11.19-1.76 22.44-3.06 33.73-4 7.69-0.64 15.38-1.13 23.09-1.46 0.39-0.02 0.78-0.04 1.17-0.05 6.51-0.27 13.03-0.42 19.55-0.48h0.31c6.34-0.05 12.67-0.01 19 0.12 0.29 0 0.58 0.02 0.87 0.02 4.01 0.09 8.01 0.23 12.02 0.41 2.55 0.12 5.09 0.25 7.64 0.39 2.99 0.17 5.99 0.36 8.98 0.58 5.07 0.37 10.14 0.82 15.2 1.31 1.79 0.18 3.58 0.37 5.37 0.57 4.02 0.45 8.03 0.95 12.04 1.5 5.81 0.8 11.61 1.73 17.38 2.81 5.14 0.96 10.26 2.02 15.34 3.26 7.94 1.93 15.78 4.17 23.4 7.15 0.6 0.24 1.22 0.37 1.82 0.64 3.37 1.52 6.73 3.04 9.96 4.85 2.35 1.32 4.53 2.87 6.66 4.52 2.04 1.58 3.67 3.51 5.04 5.67 0.85 1.34 1.32 2.83 1.68 4.36 0.14-0.72 0.06-1.45 0.06-2.17l0.03 0.02z" fill="#FDBF41"/>
<path d="m214.04 58.48c2.76 4.31 4.76 8.97 6.27 13.85 0.47 1.51 0.89 3.03 1.27 4.56 0.63 2.55 1.12 5.14 1.51 7.74 0.11 0.76 0.22 1.52 0.32 2.29 0.19 1.53 0.36 3.06 0.5 4.59 0.06 0.77 0.12 1.53 0.18 2.3 0.28 4.18 0.4 8.36 0.29 12.55-0.12 4.38-0.38 8.76-0.82 13.13-0.44 4.34-1.04 8.66-1.76 12.95-0.43 2.58-0.91 5.15-1.43 7.7-4.14-0.33-8.28-0.61-12.43-0.81-1.99-0.09-3.99-0.2-5.99-0.3 1.35-5.8 2.49-11.64 3.38-17.54 0.98-6.53 1.68-13.08 1.94-19.67 0.21-5.6 0.18-11.21-0.27-16.81-0.38-4.67-1.01-9.29-2.01-13.87-1.13-5.15-2.72-10.15-5-14.92-0.9-1.89-1.96-3.7-3.02-5.5 0.87-0.28 1.78-0.31 2.67-0.4 0.47-0.05 0.94-0.09 1.4-0.12 0.4-0.02 0.8-0.04 1.2-0.05 0.65-0.01 1.3-0.01 1.95 0 0.45 0.01 0.91 0.03 1.36 0.05 0.35 0.02 0.7 0.04 1.05 0.07 0.06 0 0.12 0.01 0.17 0.02 0.11 0.02 0.21 0.05 0.31 0.09s0.19 0.09 0.28 0.15c0.13 0.08 0.26 0.19 0.38 0.3 0.31 0.28 0.61 0.57 0.9 0.86 0.59 0.58 1.16 1.19 1.7 1.81 1.37 1.55 2.6 3.2 3.73 4.96l-0.03 0.02z" fill="#F1ECE2"/>
<path d="m204.96 71.14c1 4.57 1.63 9.2 2.01 13.87 0.46 5.6 0.49 11.21 0.27 16.81-0.25 6.59-0.95 13.14-1.94 19.67-0.89 5.9-2.03 11.75-3.38 17.54-1.51-0.07-3.03-0.15-4.54-0.21-3.46-0.13-6.91-0.21-10.37-0.28-1.29-0.03-2.58-0.05-3.86-0.07 1.26-4.75 2.37-9.54 3.32-14.36 0.72-3.61 1.34-7.24 1.89-10.88 0.36-2.44 0.68-4.88 0.96-7.33 0.29-2.56 0.52-5.13 0.68-7.71 0.17-2.75 0.28-5.51 0.34-8.26 0.07-3.69-0.05-7.37-0.32-11.05-0.18-2.43-0.41-4.85-0.72-7.27-0.42-3.31-1.02-6.58-1.81-9.82-0.63-2.59-1.35-5.17-2.31-7.67 0.66-0.42 1.42-0.63 2.15-0.9 1.48-0.55 2.97-1.03 4.49-1.45 1.52-0.41 3.05-0.76 4.61-1.02 0.11-0.02 0.21-0.05 0.32-0.05 0.07 0 0.13 0 0.19 0.02 1.06 1.8 2.12 3.6 3.02 5.5 2.28 4.77 3.87 9.77 5 14.92z" fill="#FDBF41"/>
<path d="m331.52 256.92c0.01-0.26 0.03-0.52 0.03-0.78 0-4.28 0.01-8.57 0.01-12.85 0-1.85-0.03-3.7-0.04-5.55 0-0.11 0.05-0.23 0.04-0.34-0.03-0.07-0.07-0.12-0.1-0.18v0.02c0-0.01 0-0.02-0.01-0.03-0.08-0.27-0.17-0.53-0.25-0.8-0.12-0.38-0.26-0.75-0.4-1.1-0.14-0.36-0.3-0.71-0.47-1.06-0.17-0.34-0.36-0.68-0.55-1-0.23-0.38-0.47-0.75-0.73-1.11-0.53-0.74-1.12-1.43-1.78-2.08-0.39-0.39-0.8-0.77-1.23-1.14-0.36-0.36-0.73-0.69-1.11-1.01-1.65-1.4-3.48-2.56-5.26-3.79-0.47-0.32-0.96-0.61-1.45-0.88-0.39-0.21-0.79-0.42-1.19-0.62-0.3-0.15-0.61-0.3-0.91-0.45-0.39-0.2-0.78-0.39-1.17-0.58-1.58-0.78-3.17-1.55-4.79-2.25-1.07-0.45-2.13-0.9-3.21-1.32-4.3-1.7-8.67-3.17-13.09-4.47-3.32-0.98-6.67-1.87-10.03-2.69-2.22-0.54-4.44-1.06-6.67-1.54s-4.46-0.94-6.7-1.38c-3.81-0.75-7.63-1.44-11.45-2.05-1.28-0.2-2.55-0.4-3.83-0.59-3.08-0.46-6.15-0.9-9.24-1.31-3.08-0.41-6.17-0.78-9.27-1.09-1.93-0.19-3.86-0.39-5.79-0.58-0.09 0-0.19-0.02-0.28-0.03-2.69-0.27-5.38-0.52-8.08-0.74-2.92-0.24-5.85-0.44-8.77-0.64-1.95-0.13-3.9-0.25-5.85-0.35-2.54-0.14-5.08-0.27-7.61-0.37-0.39-0.02-0.78-0.04-1.17-0.05-2.37-0.1-4.73-0.18-7.1-0.25s-4.73-0.13-7.1-0.17l-2.61-0.03-2.43-0.03c-2.24-0.02-4.48-0.03-6.71-0.02-1.31 0-2.62 0.01-3.92 0.02-3.47 0.03-6.94 0.08-10.41 0.17-0.95 0.02-1.9 0.05-2.86 0.07-1.47 0.04-2.95 0.09-4.42 0.15-0.99 0.04-1.98 0.09-2.97 0.13-3.85 0.16-7.7 0.36-11.55 0.59-4.09 0.26-8.18 0.54-12.26 0.89-2.7 0.23-5.4 0.48-8.09 0.75-4.04 0.4-8.07 0.85-12.1 1.36s-8.05 1.07-12.06 1.69c-1.11 0.17-2.22 0.35-3.33 0.54-0.75 0.12-1.49 0.25-2.24 0.38-0.57 0.1-1.14 0.19-1.71 0.29 0.81-4.08 1.74-8.13 2.77-12.16 0.39-1.52 0.77-3.03 1.15-4.55 0.54-1.49 0.93-3.03 1.36-4.55 0.05-0.18 0.1-0.35 0.15-0.53 2.11-7.11 4.51-14.12 7.18-21.02 1.69-4.38 3.49-8.72 5.4-13.02 1.28-2.88 2.61-5.75 3.98-8.58 4.53-9.37 9.56-18.48 15.14-27.29 5.21-8.26 10.88-16.18 17.09-23.72 0.13-0.15 0.23-0.33 0.35-0.49 1.87-2.14 3.71-4.3 5.62-6.41 6.22-6.89 12.92-13.27 20.34-18.86 1.83-1.38 3.72-2.68 5.59-4.01 0.17-0.12 0.38-0.14 0.58-0.15 0.09-0.27 0.34-0.39 0.55-0.52 3.83-2.45 7.81-4.63 12-6.39 0.15-0.06 0.29-0.14 0.45-0.19 0.04-0.01 0.09-0.02 0.14-0.03 0.05 0 0.1-0.02 0.15-0.02 0.66-0.42 1.42-0.63 2.15-0.9 1.48-0.55 2.97-1.03 4.49-1.45 1.52-0.41 3.05-0.76 4.61-1.02 0.11-0.02 0.21-0.05 0.32-0.05 0.07 0 0.13 0 0.19 0.02 0.87-0.28 1.78-0.31 2.67-0.4 0.47-0.05 0.94-0.09 1.4-0.12 0.4-0.02 0.8-0.04 1.2-0.05 0.65-0.01 1.3-0.01 1.95 0 0.45 0.01 0.91 0.03 1.36 0.05 0.35 0.02 0.7 0.04 1.05 0.07 0.06 0 0.12 0.01 0.17 0.02 0.11 0.02 0.21 0.05 0.31 0.09s0.19 0.09 0.28 0.15c0.13 0.08 0.26 0.19 0.38 0.3 0.31 0.28 0.61 0.57 0.9 0.86 0.59 0.58 1.16 1.19 1.7 1.81 1.37 1.55 2.6 3.2 3.73 4.96 2.76 4.31 4.76 8.97 6.27 13.85 0.47 1.51 0.89 3.03 1.27 4.56 0.63 2.55 1.12 5.14 1.51 7.74 0.11 0.76 0.22 1.52 0.32 2.29 0.19 1.53 0.36 3.06 0.5 4.59 0.06 0.77 0.12 1.53 0.18 2.3 0.28 4.18 0.4 8.36 0.29 12.55-0.12 4.38-0.38 8.76-0.82 13.13-0.44 4.34-1.04 8.66-1.76 12.95-0.43 2.58-0.91 5.15-1.43 7.7 0.67 0.05 1.34 0.1 2.01 0.16 4.81 0.4 9.61 0.88 14.41 1.32-0.04-0.05-0.08-0.09-0.13-0.13 3.98 0.49 7.97 0.97 11.95 1.46-0.02 0.04-0.05 0.08-0.09 0.12 0.24 0.03 0.48 0.07 0.72 0.1 0.8-3.94 1.52-7.88 2.13-11.85 0.54-3.56 1.02-7.13 1.39-10.71 0.35-3.35 0.66-6.7 0.82-10.07 0.08-1.62 0.17-3.25 0.27-4.87 0.01-0.21-0.1-0.49 0.23-0.58 0-3.02-0.02-6.05-0.03-9.07-0.16-0.07-0.17-0.21-0.19-0.36-0.04-0.61-0.11-1.21-0.13-1.82-0.12-4.39-0.52-8.75-1.11-13.09-0.65-4.81-1.61-9.55-2.94-14.22-0.33-1.17-0.61-2.35-1.13-3.46l-0.11-0.4s-0.04-0.03-0.04-0.05v-0.04c-0.03-0.14-0.05-0.28-0.1-0.42-1.93-5.57-4.45-10.85-7.92-15.65-3.34-4.63-7.37-8.5-12.34-11.38-1.86-1.08-3.88-1.84-5.79-2.81-0.17-0.09-0.39-0.07-0.59-0.11-0.17-0.22-0.44-0.28-0.67-0.39-4.51-2-9.01-4-13.53-5.98-0.58-0.26-1.11-0.64-1.76-0.72-0.11-0.04-0.22-0.07-0.33-0.11-0.77-0.25-1.56-0.43-2.3-0.78-0.07-0.02-0.13-0.04-0.2-0.07-0.03-0.01-0.07-0.02-0.1-0.03h-0.02c-0.08 0.05-0.13 0.01-0.18-0.06-1.45-0.37-2.9-0.65-4.37-0.85-1.06-0.15-2.12-0.26-3.19-0.32-0.36-0.02-0.71-0.03-1.07-0.04-1.07-0.03-2.13-0.02-3.19 0.03-1.41 0.06-2.81 0.19-4.21 0.38-2.44 0.34-4.86 0.85-7.26 1.51-0.34 0.1-0.69 0.19-1.03 0.3-4.51 1.34-8.81 3.15-12.96 5.29-1.38 0.71-2.75 1.46-4.11 2.25-1.24 0.71-2.46 1.44-3.67 2.21-0.4 0.25-0.8 0.51-1.2 0.77s-0.8 0.52-1.19 0.79c-0.79 0.53-1.57 1.07-2.34 1.63-0.38 0.28-0.77 0.56-1.15 0.84v0.08c0 0.02-0.02 0.04-0.03 0.06-0.03 0.03-0.07 0.04-0.13 0.04h-0.01v0.05c0 0.04-0.02 0.06-0.04 0.07s-0.04 0.01-0.08 0c-0.01 0-0.03 0-0.04-0.02-1.7 1.19-3.35 2.43-4.96 3.72-0.72 0.57-1.43 1.16-2.13 1.75-0.11 0.09-0.22 0.19-0.33 0.28-0.72 0.61-1.44 1.23-2.15 1.86v0.05c0 0.05-0.02 0.08-0.05 0.11 0 0-0.02 0.01-0.03 0.02-0.02 0.01-0.05 0.02-0.08 0.02-0.02 0.04-0.05 0.08-0.08 0.11-0.04 0.04-0.07 0.08-0.12 0.11-0.06 0.04-0.13 0.08-0.21 0.09 0 0.09-0.02 0.14-0.06 0.16-0.06 0.04-0.17 0.01-0.25 0.02-0.27 0.28-0.55 0.56-0.82 0.83-0.02 0.02-0.03 0.04-0.05 0.05v0.04c0 0.04-0.02 0.06-0.04 0.09h-0.01s-0.06 0.03-0.12 0.03c-0.24 0.2-0.5 0.38-0.73 0.59-0.02 0.02-0.04 0.03-0.06 0.05-0.88 0.83-1.77 1.66-2.64 2.51-0.06 0.06-0.12 0.11-0.17 0.16-0.27 0.27-0.55 0.52-0.83 0.78-0.7 0.65-1.42 1.28-2.09 1.96-0.36 0.37-0.73 0.74-1.09 1.1-2.08 2.11-4.14 4.24-6.13 6.44-2.54 2.81-5.01 5.67-7.41 8.59-0.34 0.42-0.69 0.83-1.03 1.25-0.05 0.06-0.11 0.13-0.15 0.2-0.07 0.1-0.14 0.2-0.21 0.31-0.09 0.14-0.18 0.28-0.27 0.41-0.07 0.1-0.14 0.19-0.22 0.29-0.03 0.03-0.05 0.06-0.07 0.08-0.11 0.12-0.22 0.23-0.35 0.32 0 0.03-0.01 0.04-0.02 0.06 0 0.02 0 0.04-0.02 0.06 0 0.01-0.02 0.02-0.03 0.03-0.02 0.01-0.05 0.02-0.07 0.03-0.06 0.28-0.29 0.42-0.48 0.6-0.01 0-0.02 0.02-0.03 0.03-0.06 0.05-0.1 0.11-0.14 0.17-0.02 0.03-0.04 0.06-0.05 0.1s-0.03 0.07-0.04 0.11v0.05c0 0.05-0.02 0.08-0.06 0.11 0 0-0.02 0-0.02 0.01h-0.04-0.04c-0.44 0.55-0.89 1.1-1.33 1.65-0.02 0.03-0.05 0.06-0.07 0.09 0.01 0.07 0.01 0.13 0 0.19 0 0.05-0.03 0.08-0.05 0.12 0 0.01-0.02 0.03-0.02 0.04-0.03 0.03-0.07 0.07-0.11 0.09-0.05 0.03-0.11 0.05-0.17 0.07-0.07 0.08-0.14 0.15-0.21 0.23-0.03 0.03-0.05 0.06-0.07 0.08-0.06 0.06-0.11 0.13-0.16 0.19-1.13 1.52-2.26 3.05-3.39 4.57 0 0.05-0.02 0.08-0.05 0.11l-0.02 0.02c-0.02 0.02-0.05 0.03-0.08 0.03-0.78 1.1-1.58 2.19-2.35 3.3-0.15 0.22-0.3 0.44-0.45 0.66-1.15 1.69-2.23 3.43-3.39 5.11-0.58 0.84-1.13 1.7-1.68 2.55-0.56 0.85-1.12 1.7-1.73 2.53-0.97 1.33-1.8 2.78-2.65 4.19-0.37 0.61-0.74 1.22-1.1 1.83-4.11 6.82-8.1 13.71-11.5 20.92-0.2 0.42-0.43 0.81-0.66 1.21-0.23 0.39-0.47 0.79-0.67 1.19-1.16 2.33-2.29 4.67-3.39 7.03-0.41 0.88-0.81 1.76-1.22 2.65-0.53 1.15-1.05 2.31-1.56 3.47-0.65 1.47-1.3 2.95-1.94 4.44-0.27 0.62-0.53 1.25-0.79 1.88-0.33 0.78-0.66 1.56-0.98 2.35-1.14 2.77-2.24 5.57-3.31 8.37-0.31 0.82-0.62 1.64-0.92 2.47-0.73 2-1.44 4-2.15 6.01-0.17 0.48-0.34 0.96-0.51 1.44-0.13 0.37-0.26 0.75-0.38 1.13-0.33 0.95-0.64 1.91-0.94 2.87-0.37 1.17-0.73 2.34-1.09 3.51-0.26 0.84-0.52 1.67-0.79 2.51-0.61 1.87-1.32 3.72-1.56 5.69-0.01 0.1-0.13 0.19-0.19 0.28-0.3 0.82-0.48 1.66-0.68 2.5-0.1 0.4-0.22 0.8-0.34 1.2s-0.24 0.8-0.35 1.2c-0.46 1.72-0.91 3.45-1.33 5.18-0.39 1.56-0.76 3.14-1.12 4.71-0.4 1.77-0.78 3.54-1.15 5.31-0.32 1.55-0.63 3.11-0.92 4.67-0.23 1.24-0.46 2.47-0.67 3.71-0.19 1.09-0.36 2.18-0.54 3.27-0.22 1.39-0.43 2.77-0.62 4.16-0.17 1.25-0.33 2.49-0.49 3.74-0.42 3.43-0.76 6.86-1.03 10.31-0.07 0.99-0.14 1.97-0.19 2.96-0.06 0.99-0.11 1.97-0.15 2.96-0.08 1.97-0.14 3.95-0.2 5.92-0.01 0.45-0.01 0.9-0.02 1.35v0.41c-0.01 2.53 0.09 5.05 0.17 7.56 0 0.11 0.02 0.23 0.02 0.34 0.02 0.45 0.04 0.9 0.07 1.35 0.09 1.82 0.24 3.64 0.43 5.46 0.13 1.23 0.27 2.47 0.43 3.7 0.02 0.18 0.05 0.35 0.07 0.53 0.34 2.5 0.73 4.99 1.22 7.46 0.91 4.62 2.12 9.16 3.78 13.57 0.03 0.07 0.06 0.15 0.09 0.23 1.24 3.26 2.68 6.43 4.45 9.45 2.91 4.97 6.46 9.37 10.99 12.88 0.54 0.42 1.09 0.82 1.65 1.22 0.54 0.37 1.12 0.71 1.68 1.05 0.1 0.07 0.22 0.12 0.33 0.17 0.08 0.04 0.16 0.07 0.24 0.11 0.14 0.07 0.27 0.16 0.36 0.29 0.03 0.04 0.06 0.1 0.09 0.16v-0.02c0.15-0.02 0.28 0.01 0.35 0.17h0.01c0.14 0 0.27 0.04 0.34 0.17 0.04 0 0.07 0 0.1 0.01h0.01c0.09 0.02 0.17 0.06 0.23 0.15v0.01h0.03 0.06c0.02 0 0.03 0.01 0.06 0.01 0.01 0 0.03 0 0.04 0.01 0.02 0 0.04 0.02 0.06 0.03 0 0 0.02 0 0.03 0.01l0.06 0.06h0.01c0.19 0.2 0.45 0.25 0.69 0.36 4.99 2.21 9.99 4.42 14.98 6.63 2.47 1.09 4.92 2.24 7.53 2.96s5.26 1.21 7.97 1.32h1.35 4.05c1.31-0.04 2.61-0.21 3.9-0.41 5.25-0.79 10.29-2.34 15.16-4.43 8.92-3.83 16.97-9.06 24.52-15.11 1.66-1.33 3.28-2.7 4.89-4.09 5.61 0.1 11.21 0.13 16.82 0.07 5.34-0.06 10.69-0.15 16.03-0.36 0.26-0.15 0.54-0.15 0.82-0.04h0.24c0.32-0.15 0.65-0.14 0.98-0.04h0.24c0.19-0.12 0.39-0.14 0.59-0.1h0.02 0.01c0.07 0.02 0.13 0.04 0.19 0.06h0.24c0.13-0.08 0.26-0.11 0.39-0.12 0.14 0 0.28 0.03 0.43 0.07h0.24c0.09-0.05 0.18-0.08 0.27-0.1 0.18-0.04 0.37-0.02 0.56 0.05h0.23s0.02 0 0.03-0.01c0.26-0.13 0.53-0.13 0.79-0.03h0.23c0.27-0.17 0.54-0.15 0.83-0.05h0.23c0.27-0.16 0.55-0.14 0.83-0.05h0.23c0.06-0.04 0.11-0.06 0.16-0.08 0.09-0.03 0.17-0.03 0.26-0.03 0.08 0 0.17 0.02 0.25 0.06 1.22-0.06 2.43-0.1 3.65-0.17 9.34-0.55 18.65-1.29 27.95-2.32 14.12-1.57 28.15-3.68 42.01-6.84 9.44-2.15 18.75-4.73 27.75-8.36 4.83-1.95 9.52-4.18 13.86-7.1 2.61-1.76 5.03-3.74 6.97-6.27 1.22-1.61 2.21-3.34 2.59-5.36 0.15-0.16 0.21-0.35 0.22-0.55 0.09-1.45 0.14-2.89 0.01-4.34l-0.08 0.01zm-125.35-30.59c-2.6-0.16-5.19-0.3-7.79-0.41 2.6 0.12 5.19 0.26 7.79 0.41zm-57.67 47.21c-0.42 0.37-0.84 0.75-1.26 1.12-2.95 2.59-5.99 5.04-9.16 7.33-3.17 2.28-6.46 4.4-9.9 6.29-0.49 0.27-0.99 0.54-1.49 0.8-1.15 0.6-2.31 1.17-3.48 1.72-1.17 0.54-2.36 1.04-3.56 1.51-2.4 0.94-4.86 1.72-7.4 2.32-1.1 0.26-2.2 0.48-3.3 0.65-0.39 0.06-0.78 0.12-1.16 0.18-1.5 0.2-3 0.32-4.51 0.36-0.5 0.01-1.01 0.02-1.51 0.01-0.51 0-1.01-0.02-1.52-0.04-0.22-0.01-0.43-0.04-0.65-0.06-0.21-0.02-0.43-0.05-0.65-0.07-0.28-0.02-0.49-0.14-0.7-0.32-0.6-0.54-1.17-1.1-1.73-1.68-0.83-0.86-1.62-1.76-2.36-2.69-0.49-0.62-0.97-1.26-1.43-1.92-0.23-0.33-0.45-0.66-0.67-0.99-0.02-0.03-0.03-0.06-0.04-0.09-0.01-0.05-0.03-0.11-0.04-0.16-0.09-0.09-0.21-0.18-0.28-0.28l-0.02-0.02c-1.03-1.63-1.96-3.31-2.8-5.04-0.42-0.87-0.82-1.73-1.19-2.62-0.38-0.88-0.73-1.78-1.06-2.69-0.04-0.11-0.03-0.22-0.05-0.34-0.58-1.08-0.87-2.26-1.23-3.41-0.8-2.57-1.43-5.18-1.95-7.82-0.09-0.47-0.18-0.93-0.27-1.4-0.04-0.19-0.06-0.37-0.1-0.56-0.04-0.23-0.09-0.46-0.13-0.69 0-0.06 0-0.11-0.02-0.17-0.02-0.2-0.03-0.41-0.05-0.61-0.34-1.47-0.49-2.97-0.66-4.47-0.58-4.78-0.8-9.58-0.81-14.38 0-1.81 0.02-3.63 0.07-5.45 0.03-1.08 0.08-2.15 0.14-3.22 3.95-0.94 7.93-1.77 11.92-2.53 6.82-1.29 13.68-2.34 20.56-3.19 0.11-0.01 0.22-0.03 0.33-0.04 0.13-0.02 0.26-0.03 0.39-0.02 0.08 0 0.16 0.02 0.24 0.04 1.07-0.23 2.16-0.35 3.25-0.46 0.5-0.05 1-0.1 1.49-0.15 7.56-0.84 15.13-1.48 22.71-1.94 2.13-0.13 4.26-0.25 6.38-0.35 5.44-0.26 10.88-0.43 16.32-0.53 2.98-0.06 5.96-0.09 8.94-0.09 4.25 0 8.5 0.05 12.74 0.15-0.92 1.53-1.85 3.06-2.8 4.57-0.69 1.11-1.39 2.21-2.1 3.3-1.27 1.95-2.56 3.88-3.88 5.8-2.44 3.54-4.97 7.01-7.6 10.41-0.83 1.08-1.67 2.15-2.53 3.21-0.15 0.19-0.3 0.38-0.45 0.56-1.24 1.54-2.5 3.05-3.79 4.54-2.15 2.49-4.36 4.92-6.63 7.3-0.69 0.72-1.38 1.44-2.08 2.15-1.8 1.82-3.66 3.6-5.56 5.33 0.58 0.03 1.16 0.05 1.74 0.08-0.58-0.03-1.16-0.05-1.74-0.08-0.31 0.28-0.62 0.57-0.93 0.85l0.01-0.01zm10.12-0.48c2.2 0.07 4.41 0.13 6.61 0.17-2.21-0.04-4.41-0.1-6.61-0.17zm145.42-23.42c-0.06 0.08-0.16 0.16-0.32 0.28-0.21 0.16-0.42 0.33-0.64 0.48-0.21 0.16-0.43 0.31-0.65 0.47-0.41 0.29-0.83 0.57-1.26 0.84-0.05 0.03-0.1 0.06-0.15 0.1-0.35 0.22-0.7 0.44-1.06 0.65-0.53 0.32-1.05 0.62-1.59 0.92-3.66 2.04-7.51 3.68-11.44 5.13-3.71 1.36-7.47 2.55-11.26 3.61-5.43 1.52-10.93 2.78-16.48 3.88-5.39 1.08-10.8 1.99-16.23 2.78s-10.88 1.45-16.34 2.02c-1.79 0.19-3.58 0.36-5.37 0.53-3.59 0.33-7.18 0.61-10.77 0.85-1.8 0.12-3.6 0.23-5.39 0.33-4.03 0.23-8.06 0.4-12.09 0.53-0.73 0.02-1.46 0.05-2.2 0.07-0.67 0.02-1.34 0.04-2.02 0.06 1.65-2.04 3.3-4.07 4.81-6.22 0.22-0.27 0.44-0.54 0.65-0.82 3.23-4.35 6.33-8.78 9.31-13.29 0.16-0.25 0.99-1.51 1.24-1.9 1.89-2.91 3.72-5.85 5.51-8.83 2.92-4.88 5.71-9.83 8.36-14.85 5.06 0.44 10.11 0.95 15.16 1.57 0.37 0.04 0.74 0.12 1.12 0.18 2.26 0.16 4.5 0.5 6.73 0.83 2.87 0.42 5.74 0.88 8.6 1.36 3.86 0.65 7.72 1.37 11.55 2.2 2.07 0.45 4.13 0.91 6.2 1.36 0.02 0 0.05 0 0.07 0.01 0.02 0 0.04 0 0.07 0.01 0.13 0.02 0.28 0.02 0.42 0.04 0.18 0.02 0.36 0.07 0.5 0.22 4.42 1.13 8.83 2.32 13.16 3.75 0.4 0.13 0.86 0.17 1.17 0.51 1.13 0.2 2.16 0.67 3.22 1.06 0.93 0.34 1.86 0.7 2.78 1.07 2.63 1.04 5.21 2.19 7.71 3.52 0.99 0.52 1.96 1.07 2.92 1.65 1.27 0.77 2.51 1.58 3.67 2.51 0.34 0.27 0.44 0.38 0.31 0.54l0.02-0.01z" fill="#007FFF"/>
<path d="m331.61 177.56c-0.12-2.39-1.03-4.5-2.42-6.42-1.96-2.73-4.49-4.86-7.23-6.74-4.67-3.2-9.78-5.55-15.01-7.65-2.91-1.17-5.86-2.21-8.84-3.17-4.54-1.46-9.15-2.71-13.78-3.85-5.79-1.42-11.61-2.65-17.47-3.72-3.57-0.65-7.15-1.28-10.74-1.8-0.11 0-0.22-0.01-0.33-0.02-0.06 0-0.13-0.01-0.19-0.02-0.13-0.01-0.27-0.03-0.4-0.04-0.3-0.04-0.61-0.1-0.9-0.17-1.07-0.17-2.13-0.34-3.2-0.52-0.62-0.09-1.24-0.18-1.86-0.26-0.24-0.04-0.48-0.07-0.72-0.1-2.47-0.3-4.95-0.59-7.42-0.91-0.72-0.09-1.44-0.15-2.16-0.23-0.72-0.07-1.44-0.16-2.15-0.3-4.8-0.45-9.6-0.93-14.41-1.32-0.67-0.05-1.34-0.11-2.01-0.16-4.14-0.33-8.28-0.61-12.43-0.81-1.99-0.09-3.99-0.2-5.99-0.3-1.51-0.07-3.03-0.15-4.54-0.21-3.46-0.13-6.91-0.21-10.37-0.28-1.29-0.03-2.58-0.05-3.86-0.07-2.17-0.04 0 0 0 0s2.37-9.54 3.32-14.36c0.72-3.61 1.34-7.24 1.89-10.88 0.36-2.44 0.68-4.88 0.96-7.33 0.29-2.56 0.52-5.13 0.68-7.71 0.17-2.75 0.28-5.51 0.34-8.26 0.07-3.69-0.05-7.37-0.32-11.05-0.18-2.43-0.41-4.85-0.72-7.27-0.42-3.31-1.02-6.58-1.81-9.82-0.63-2.59-1.35-5.17-2.31-7.67-0.05 0-0.1 0-0.15 0.02-0.05 0-0.1 0.02-0.14 0.03-0.16 0.05-0.3 0.13-0.45 0.19-4.2 1.76-8.17 3.95-12 6.39-0.22 0.14-0.46 0.25-0.55 0.52 0.92 5.81 1.35 11.65 1.4 17.53 0.08 8.41-0.54 16.77-1.69 25.1-0.87 6.27-2.02 12.49-3.42 18.67-1.21 5.36-2.61 10.67-4.17 15.93-3.77 0.04-7.55 0.16-11.32 0.28-5.02 0.17-10.04 0.4-15.05 0.72-4.42 0.28-8.85 0.57-13.27 0.95-5.74 0.5-11.47 1.06-17.18 1.76-1.37 2.84-2.7 5.7-3.98 8.58-1.91 4.3-3.71 8.64-5.4 13.02 0.08-0.01 0.15-0.02 0.23-0.03 6.67-0.94 13.37-1.72 20.07-2.39 1.92-0.19 3.84-0.42 5.77-0.59 4.76-0.4 9.53-0.67 14.3-0.97 6.2-0.4 12.41-0.65 18.63-0.83h0.23c5.29-0.15 10.58-0.22 15.88-0.23 1.33 0 2.66 0 4 0.01 3.02 0.01 6.05 0.04 9.07 0.09 3.43 0.06 6.85 0.19 10.28 0.31h0.09c3.28 0.12 6.56 0.24 9.84 0.4 2.52 0.12 5.04 0.3 7.56 0.49l1.62 0.12c3.78 0.27 7.55 0.55 11.33 0.84 0.93 0.07 1.85 0.2 2.78 0.29 5 0.44 9.99 1 14.97 1.64 2.23 0.28 4.45 0.58 6.68 0.88 4.69 0.65 9.37 1.43 14.03 2.24 4.49 0.79 8.97 1.68 13.41 2.69 3.91 0.89 7.8 1.86 11.66 2.91 5.07 1.38 10.05 2.99 14.97 4.81 4.25 1.58 8.36 3.44 12.34 5.61 2.74 1.5 5.34 3.18 7.71 5.22 2.15 1.85 4.03 3.93 5.28 6.53 0.5 1.03 0.73 2.14 1.05 3.22 0.01-2.15 0.03-4.3 0.04-6.45v-9.58c0-1.16 0.04-2.33-0.02-3.48l-0.03-0.02z" fill="#f10"/>
<path d="m205.37 25.02c-0.77-0.25-1.56-0.43-2.3-0.78 0-0.1 0.01-0.2 0.02-0.3 0.92 0.28 1.79 0.67 2.6 1.19-0.11-0.04-0.22-0.07-0.33-0.11h0.01z" fill="#404A5A"/>
<path d="m187.2 17.01h-0.01 0.01z" fill="#FDBF41"/>
<path d="m203.03 23.88c-4.94-2.2-9.89-4.39-14.83-6.6-0.2-0.09-0.4-0.02-0.58-0.13-0.17 0.04-0.35 0.08-0.42-0.14-0.2 0.09-0.39 0-0.58-0.07-4.33-1.3-8.76-1.7-13.27-1.47-5.97 0.31-11.69 1.77-17.25 3.92-1.75 0.67-3.47 1.41-5.15 2.2-0.42 0.2-0.84 0.4-1.26 0.61-0.49 0.24-0.98 0.48-1.46 0.74-0.65 0.33-1.29 0.67-1.94 1.02-3.37 1.84-6.64 3.89-9.81 6.09-0.66 0.46-1.32 0.92-1.97 1.39l-0.39 0.28c-1.56 1.14-3.09 2.3-4.59 3.5-3.76 2.99-7.37 6.17-10.86 9.5-9.69 9.25-18.3 19.46-26.18 30.28-0.2 0.28-0.4 0.57-0.6 0.85s-0.02 0.07-0.04 0.09-0.05 0.03-0.09 0.04c-0.71 1.01-1.41 2.01-2.12 3.02-1.18 1.68-2.34 3.36-3.48 5.07-1.08 1.62-2.15 3.26-3.2 4.9-0.84 1.3-1.66 2.61-2.47 3.93-0.72 1.18-1.44 2.35-2.15 3.53-1 1.67-1.99 3.35-2.97 5.05-0.49 0.85-0.97 1.69-1.45 2.55-0.05 0.1-0.12 0.19-0.18 0.29 0 0.11-0.04 0.2-0.08 0.29-0.04 0.06-0.08 0.13-0.11 0.19-0.45 0.8-0.89 1.61-1.33 2.42-1.66 3.03-3.28 6.09-4.84 9.17-0.66 1.3-1.31 2.61-1.95 3.92-3.46 7.08-6.67 14.27-9.62 21.56-1.57 3.87-3.06 7.77-4.48 11.69-0.75 2.08-1.49 4.17-2.2 6.27-1.31 3.88-2.51 7.79-3.68 11.71-0.48 1.61-0.95 3.23-1.4 4.85l-0.03 0.12c-0.71 2.54-1.37 5.09-1.99 7.65-0.57 2.3-1.12 4.61-1.63 6.93-0.44 1.98-0.84 3.97-1.24 5.96-0.09 0.47-0.18 0.94-0.27 1.42-0.04 0.19-0.07 0.38-0.11 0.57-0.01 0.07-0.03 0.14-0.04 0.22-0.07 0.38-0.15 0.75-0.22 1.13-0.57 3.11-1.08 6.23-1.52 9.37-0.43 3.03-0.81 6.05-1.13 9.09-0.07 0.68-0.13 1.36-0.2 2.04 0 0.05-0.01 0.1-0.01 0.15-0.05 0.52-0.08 0.89-0.12 1.26-0.14 1.69-0.26 3.39-0.36 5.08-0.1 1.7-0.18 3.4-0.23 5.1 0 0.22 0 0.44-0.02 0.66-0.1 3.27-0.12 6.53-0.02 9.79 0.1 3.08 0.27 6.15 0.56 9.22 0.28 3.06 0.67 6.11 1.2 9.16 0.26 1.49 0.54 2.97 0.86 4.44 1.06 4.96 2.49 9.82 4.45 14.52 0.14 0.33 0.27 0.65 0.42 0.98 0.14 0.32 0.29 0.65 0.43 0.97 0.34 0.76 0.7 1.51 1.07 2.25 0.62 1.24 1.28 2.45 1.98 3.63 1.92 3.24 4.18 6.25 6.86 8.97 0.7 0.72 1.43 1.4 2.18 2.05 1.41 1.23 2.91 2.36 4.51 3.37 0.3 0.19 0.65 0.3 0.87 0.59 0.03 0.04 0.06 0.09 0.08 0.14 0.15-0.03 0.26 0 0.3 0.16 0.62 0.15 1.12 0.57 1.69 0.82 3.04 1.35 6.07 2.7 9.11 4.05 1.73 0.77 3.47 1.52 5.21 2.28l0.22-0.2c-0.56-0.35-1.14-0.68-1.68-1.05-0.57-0.39-1.11-0.8-1.65-1.22-4.53-3.52-8.08-7.91-10.99-12.88-1.77-3.02-3.21-6.19-4.45-9.45-0.03-0.08-0.06-0.15-0.09-0.23-1.66-4.41-2.87-8.95-3.78-13.57-0.49-2.47-0.88-4.96-1.22-7.46-0.02-0.18-0.05-0.35-0.07-0.53-0.16-1.23-0.3-2.47-0.43-3.7-0.19-1.82-0.33-3.63-0.43-5.46-0.02-0.45-0.05-0.9-0.07-1.35 0-0.11-0.01-0.23-0.02-0.34-0.09-2.52-0.18-5.04-0.17-7.56v-0.41c0-0.45 0-0.9 0.02-1.35 0.06-1.98 0.12-3.95 0.2-5.92 0.04-0.99 0.09-1.97 0.15-2.96s0.12-1.97 0.19-2.96c0.26-3.45 0.61-6.88 1.03-10.31 0.15-1.25 0.31-2.49 0.49-3.74 0.19-1.39 0.4-2.78 0.62-4.16 0.17-1.09 0.35-2.18 0.54-3.27 0.21-1.24 0.44-2.47 0.67-3.71 0.29-1.56 0.6-3.11 0.92-4.67 0.37-1.77 0.75-3.55 1.15-5.31 0.36-1.57 0.73-3.14 1.12-4.71 0.43-1.73 0.87-3.46 1.33-5.18 0.11-0.4 0.23-0.8 0.35-1.2s0.24-0.8 0.34-1.2c0.21-0.84 0.38-1.68 0.68-2.5 0.07-0.09 0.18-0.18 0.19-0.28 0.24-1.98 0.95-3.83 1.56-5.69 0.27-0.83 0.53-1.67 0.79-2.51 0.36-1.17 0.72-2.34 1.09-3.51 0.3-0.96 0.61-1.92 0.94-2.87 0.13-0.37 0.25-0.75 0.38-1.13 0.17-0.48 0.34-0.96 0.51-1.44 0.72-2 1.42-4.01 2.15-6.01 0.3-0.82 0.61-1.65 0.92-2.47 1.07-2.81 2.17-5.6 3.31-8.37 0.32-0.79 0.65-1.57 0.98-2.35 0.27-0.63 0.53-1.25 0.79-1.88 0.64-1.48 1.29-2.96 1.94-4.44 0.51-1.16 1.03-2.31 1.56-3.47 0.4-0.89 0.81-1.76 1.22-2.65 1.1-2.36 2.22-4.7 3.39-7.03 0.2-0.41 0.44-0.8 0.67-1.19s0.46-0.79 0.66-1.21c3.4-7.21 7.39-14.1 11.5-20.92 0.37-0.61 0.73-1.22 1.1-1.83 0.86-1.42 1.68-2.86 2.65-4.19 0.61-0.83 1.17-1.67 1.73-2.53 0.56-0.85 1.11-1.71 1.68-2.55 1.16-1.68 2.24-3.42 3.39-5.11 0.15-0.22 0.3-0.44 0.45-0.66 0.77-1.11 1.57-2.2 2.35-3.3v-0.03-0.03s0.06-0.06 0.09-0.08c0.02 0 0.04-0.02 0.06-0.02 1.13-1.52 2.26-3.05 3.39-4.57 0.05-0.07 0.11-0.13 0.16-0.19 0.03-0.03 0.05-0.06 0.07-0.08 0.07-0.08 0.14-0.15 0.21-0.23v-0.1c0-0.03 0-0.06 0.01-0.08 0.02-0.06 0.04-0.1 0.07-0.14s0.08-0.07 0.12-0.11l0.15-0.09c0.03-0.03 0.05-0.06 0.07-0.09 0.44-0.55 0.89-1.1 1.33-1.65 0.05-0.06 0.1-0.13 0.15-0.19 0-0.04 0.02-0.07 0.04-0.11 0.01-0.03 0.03-0.07 0.05-0.1 0.04-0.06 0.09-0.12 0.14-0.17 0-0.01 0.02-0.02 0.03-0.03 0.19-0.18 0.43-0.33 0.48-0.6v-0.05c0-0.05 0.04-0.09 0.08-0.11 0.02 0 0.04-0.01 0.06-0.02 0.13-0.1 0.25-0.2 0.35-0.32 0.03-0.03 0.05-0.06 0.07-0.08 0.08-0.09 0.15-0.19 0.22-0.29 0.09-0.13 0.18-0.27 0.27-0.41 0.07-0.1 0.14-0.21 0.21-0.31 0.05-0.07 0.1-0.14 0.15-0.2 0.34-0.42 0.69-0.84 1.03-1.25 2.4-2.93 4.87-5.79 7.41-8.59 1.99-2.2 4.05-4.33 6.13-6.44 0.36-0.37 0.73-0.74 1.09-1.1 0.68-0.68 1.39-1.31 2.09-1.96 0.28-0.26 0.56-0.51 0.83-0.78 0.06-0.05 0.11-0.11 0.17-0.16 0.87-0.84 1.76-1.68 2.64-2.51 0.02-0.02 0.04-0.03 0.06-0.05 0.23-0.21 0.49-0.4 0.73-0.59 0.06-0.05 0.11-0.1 0.17-0.16l0.05-0.05c0.27-0.28 0.55-0.55 0.82-0.83 0.04-0.06 0.08-0.1 0.13-0.13s0.11-0.05 0.18-0.05c0.08-0.01 0.15-0.05 0.21-0.09 0.04-0.03 0.08-0.07 0.12-0.11 0.03-0.03 0.05-0.07 0.08-0.11 0.05-0.06 0.11-0.13 0.16-0.19 0.71-0.63 1.42-1.25 2.15-1.86 0.11-0.09 0.22-0.18 0.33-0.28 0.7-0.59 1.41-1.17 2.13-1.75 1.61-1.29 3.27-2.54 4.96-3.72 0.06-0.03 0.11-0.06 0.17-0.09h0.01c0.05-0.07 0.11-0.13 0.17-0.18 0.38-0.28 0.77-0.57 1.15-0.84 0.77-0.56 1.56-1.1 2.34-1.63 0.39-0.26 0.79-0.53 1.19-0.78 0.4-0.26 0.8-0.52 1.2-0.77 1.21-0.76 2.43-1.5 3.67-2.21 1.35-0.78 2.73-1.53 4.11-2.25 4.16-2.14 8.46-3.95 12.96-5.29 0.34-0.1 0.69-0.2 1.03-0.3 2.4-0.67 4.81-1.18 7.26-1.51 1.39-0.19 2.8-0.32 4.21-0.38 1.06-0.05 2.12-0.06 3.19-0.03 0.36 0.01 0.71 0.02 1.07 0.04 1.07 0.06 2.13 0.17 3.19 0.32 1.47 0.2 2.92 0.48 4.37 0.85 0.04-0.01 0.07-0.02 0.11 0 0.04 0 0.07 0.03 0.09 0.06 0.03 0.01 0.07 0.02 0.1 0.03 0.07 0.02 0.13 0.04 0.2 0.07 0-0.1 0.01-0.2 0.02-0.3-0.02-0.02-0.04-0.04-0.07-0.05l0.03-0.02z" fill="#F1ECE2"/>
<path d="m187.21 17c-0.07-0.31-0.37-0.34-0.59-0.44-4.26-1.89-8.52-3.79-12.8-5.66-1.14-0.5-2.24-1.08-3.42-1.48-0.13 0.08-0.27 0.07-0.41 0.02-2.93-0.96-5.97-1.44-9.03-1.63-2.81-0.17-5.63 0-8.42 0.37-2.3 0.31-4.56 0.79-6.8 1.39-4.35 1.17-8.53 2.76-12.56 4.75-1.55 0.77-3.05 1.64-4.58 2.45-0.51 0.27-1.04 0.51-1.53 0.8-4.38 2.61-8.63 5.42-12.66 8.55-1.01 0.78-2.04 1.54-2.98 2.39-0.61 0.55-1.2 1.11-1.86 1.59-0.12 0.09-0.25 0.18-0.4 0.27-0.11 0.1-0.22 0.19-0.33 0.28v0.02c-0.05 0.13-0.1 0.25-0.18 0.32-0.05 0.04-0.1 0.06-0.16 0.07h-0.1-0.02s-0.06-0.02-0.1-0.03c-0.03 0.02-0.06 0.04-0.08 0.06-0.35 0.25-0.54 0.68-0.86 0.93-0.05 0.04-0.1 0.07-0.15 0.1-0.84 0.44-1.35 1.23-2.1 1.77-0.72 0.52-1.32 1.21-1.98 1.82-3.27 3.01-6.36 6.2-9.42 9.42-0.94 0.99-1.78 2.05-2.68 3.08-0.52 0.59-1.1 1.11-1.61 1.69-1.39 1.59-2.74 3.22-4.11 4.82-1.02 1.19-1.98 2.42-2.89 3.69-0.72 1.01-1.58 1.91-2.35 2.88-2.33 2.99-4.54 6.07-6.75 9.14-2.18 3.03-4.18 6.18-6.25 9.29-1.86 2.79-3.57 5.68-5.34 8.54-0.65 1.06-1.23 2.16-1.89 3.22-1.13 1.82-2.18 3.69-3.17 5.59-0.62 0.74-0.99 1.64-1.46 2.47-0.98 1.74-1.92 3.5-2.77 5.31-0.27 0.58-0.66 1.07-0.94 1.65-0.79 1.61-1.59 3.22-2.42 4.82-2.07 4.02-3.89 8.15-5.78 12.26-2.05 4.44-3.87 8.99-5.67 13.54-1.22 3.09-2.45 6.18-3.42 9.36-0.16 0.52-0.46 0.99-0.64 1.5-0.94 2.74-1.88 5.47-2.77 8.22-0.83 2.53-1.61 5.08-2.36 7.63-0.72 2.46-1.41 4.92-2.07 7.39-1.29 4.79-2.47 9.61-3.48 14.46-0.26 1.29-0.52 2.58-0.77 3.87-0.86 4.39-1.62 8.81-2.24 13.25-0.58 4.22-1.06 8.45-1.44 12.69l-0.09 1.17v1.08-1.08c-0.18 2.32-0.32 4.65-0.41 6.99-0.11 2.67-0.13 5.34-0.15 8.01 0 1.27 0.13 2.55 0.12 3.83-0.02 1.95 0.15 3.89 0.26 5.83 0.04 0.71 0.07 1.43 0.14 2.15 0.01 0.12 0.03 0.25 0.04 0.37 0.23 1.87 0.38 3.75 0.64 5.61 0.25 1.81 0.5 3.62 0.83 5.41 0.48 2.5 0.93 5 1.7 7.43 0.24 0.76 0.37 1.56 0.59 2.34 0.46 1.7 1.01 3.38 1.61 5.03 0.87 2.37 1.87 4.69 2.95 6.97 1.67 3.5 3.74 6.76 6.17 9.78 2.3 2.87 4.93 5.4 7.94 7.52 0.12 0.09 0.25 0.17 0.38 0.25l0.66 0.42c0.12 0.08 0.25 0.16 0.38 0.24 0.42 0.26 0.83 0.53 1.23 0.82 0 0 0.01 0 0.02 0.01 0.12 0.09 0.24 0.18 0.36 0.28 0 0.02 0.02 0.04 0.03 0.06 0.07 0.1 0.21 0.11 0.32 0.16 5.2 2.3 10.39 4.6 15.59 6.9 0.21 0.09 0.41 0.23 0.66 0.17-0.03-0.05-0.05-0.09-0.08-0.14-0.22-0.29-0.57-0.4-0.87-0.59-1.59-1.01-3.1-2.14-4.51-3.37-0.75-0.65-1.48-1.34-2.18-2.05-2.68-2.72-4.94-5.74-6.86-8.97-0.7-1.18-1.36-2.39-1.98-3.63-0.37-0.74-0.73-1.49-1.07-2.25-0.15-0.33-0.29-0.65-0.43-0.98s-0.28-0.65-0.42-0.98c-1.96-4.7-3.38-9.56-4.45-14.52-0.32-1.47-0.6-2.95-0.86-4.44-0.52-3.04-0.91-6.09-1.2-9.16-0.29-3.06-0.46-6.14-0.56-9.22-0.1-3.26-0.08-6.53 0.02-9.79 0.01-0.22 0.01-0.44 0.02-0.66 0.06-1.7 0.14-3.4 0.23-5.1 0.1-1.69 0.22-3.39 0.36-5.08 0.03-0.37 0.07-0.74 0.12-1.26 0-0.05 0.01-0.1 0.01-0.15 0.06-0.68 0.12-1.36 0.2-2.04 0.31-3.04 0.7-6.07 1.13-9.09 0.45-3.14 0.96-6.26 1.52-9.37 0.07-0.38 0.15-0.75 0.22-1.13 0.01-0.07 0.03-0.14 0.04-0.22 0.04-0.19 0.07-0.38 0.11-0.57 0.09-0.48 0.18-0.95 0.27-1.42 0.39-1.99 0.8-3.98 1.24-5.96 0.51-2.32 1.06-4.63 1.63-6.93 0.63-2.56 1.29-5.11 1.99-7.65 0-0.04 0.02-0.08 0.03-0.12 0.45-1.62 0.92-3.24 1.4-4.85 1.17-3.92 2.38-7.83 3.68-11.71 0.71-2.1 1.45-4.19 2.2-6.27 1.42-3.93 2.91-7.83 4.48-11.69 2.95-7.29 6.15-14.48 9.62-21.56 0.64-1.31 1.29-2.62 1.95-3.92 1.56-3.08 3.18-6.14 4.84-9.17 0.44-0.81 0.89-1.62 1.33-2.42 0.04-0.06 0.08-0.13 0.11-0.19 0.05-0.09 0.09-0.18 0.08-0.29 0.06-0.1 0.13-0.2 0.18-0.29 0.48-0.85 0.96-1.7 1.45-2.55 0.98-1.69 1.96-3.37 2.97-5.05 0.71-1.18 1.43-2.36 2.15-3.53 0.81-1.32 1.63-2.63 2.47-3.93 1.05-1.64 2.12-3.28 3.2-4.9 1.14-1.71 2.3-3.39 3.48-5.07 0.7-1.01 1.41-2.01 2.12-3.02v-0.06c0-0.01 0.01-0.03 0.02-0.04 0.02-0.03 0.06-0.04 0.1-0.04 0.2-0.28 0.39-0.57 0.6-0.85 7.88-10.82 16.49-21.02 26.18-30.28 3.49-3.33 7.09-6.51 10.86-9.5 1.5-1.2 3.03-2.36 4.59-3.5l0.39-0.28c0.65-0.47 1.31-0.93 1.97-1.39 3.18-2.2 6.44-4.25 9.81-6.09 0.64-0.35 1.29-0.69 1.94-1.02 0.49-0.25 0.97-0.5 1.46-0.74 0.42-0.21 0.84-0.41 1.26-0.61 1.69-0.79 3.4-1.53 5.15-2.2 5.56-2.14 11.28-3.6 17.25-3.92 4.5-0.24 8.93 0.16 13.27 1.47 0.19 0.06 0.38 0.15 0.58 0.07s0-0.01 0 0l0.01-0.01zm-168.96 221v0.28-0.28z" fill="#FDBF41"/>
<path d="m169.46 9.01c-3.87-1.73-7.75-3.41-11.6-5.16-4.41-2.01-8.99-3.25-13.84-3.48-1.22 0-2.45 0-3.67 0.01h-1.43c-2.44 0.13-4.85 0.49-7.24 1-7.05 1.5-13.61 4.26-19.9 7.72-6.33 3.48-12.21 7.64-17.8 12.2-0.71 0.58-1.48 1.11-2.1 1.81-0.05 0.02-0.1 0.06-0.13 0.11v0.06h-0.03-0.03c-0.16 0.13-0.32 0.25-0.48 0.38-6.19 5.3-11.94 11.05-17.38 17.12-6.46 7.22-12.42 14.84-17.99 22.76-8.3 11.8-15.65 24.18-22.2 37.03-4.42 8.66-8.44 17.51-12.06 26.54-3.77 9.42-7.23 18.96-10.01 28.73-0.31 1.08-0.69 2.15-1 3.23-2.28 8.05-4.25 16.17-5.8 24.39-1.32 6.97-2.37 13.97-3.06 21.03-0.51 5.12-0.86 10.25-0.84 15.4 0 2.34 0.01 4.68 0.02 7.02 0.03 0.32 0.04 0.64 0.05 0.96 0.01 0.5 0 0.99-0.02 1.49 0.02 2.85 0.26 5.68 0.53 8.52 0.45 4.63 1.15 9.21 2.18 13.74 1.28 5.68 3.03 11.19 5.52 16.46 2.67 5.64 6.06 10.77 10.64 15.06 2.67 2.5 5.61 4.61 8.92 6.16 2.94 1.38 5.92 2.67 8.9 3.98 2.04 0.9 4.06 1.87 6.14 2.67-0.12-0.09-0.24-0.19-0.36-0.28 0 0-0.01 0-0.02-0.01-0.4-0.29-0.81-0.56-1.23-0.82-0.13-0.08-0.25-0.16-0.38-0.24-0.22-0.14-0.44-0.27-0.66-0.42-0.13-0.08-0.25-0.17-0.38-0.25-3.01-2.13-5.63-4.65-7.94-7.52-2.43-3.02-4.5-6.28-6.17-9.78-1.09-2.28-2.09-4.6-2.95-6.97-0.23-0.21-0.45-0.43-0.67-0.65 0.22 0.22 0.44 0.44 0.67 0.65-0.6-1.65-1.15-3.33-1.61-5.03-0.21-0.77-0.35-1.57-0.59-2.34-0.77-2.43-1.23-4.93-1.7-7.43-0.34-1.79-0.58-3.6-0.83-5.41-0.26-1.86-0.42-3.74-0.64-5.61-0.01-0.12-0.03-0.25-0.04-0.37v7.17-7.17c-0.07-0.71-0.1-1.43-0.14-2.15-0.1-1.94-0.27-3.88-0.26-5.83 0-1.27-0.13-2.55-0.12-3.83 0.02-2.67 0.05-5.34 0.15-8.01 0.09-2.33 0.23-4.66 0.41-6.99l0.09-1.17c0.38-4.24 0.86-8.47 1.44-12.69 0.62-4.44 1.38-8.86 2.24-13.25 0.25-1.29 0.51-2.58 0.77-3.87 1-4.86 2.19-9.67 3.48-14.46 0.66-2.47 1.35-4.94 2.07-7.39 0.75-2.56 1.53-5.1 2.36-7.63 0.9-2.75 1.84-5.49 2.77-8.22 0.17-0.52 0.48-0.99 0.64-1.5 0.98-3.18 2.2-6.27 3.42-9.36 1.8-4.55 3.62-9.09 5.67-13.54 1.89-4.1 3.71-8.24 5.78-12.26 0.82-1.6 1.63-3.21 2.42-4.82 0.28-0.57 0.68-1.07 0.94-1.65 0.85-1.81 1.79-3.57 2.77-5.31 0.47-0.83 0.84-1.73 1.46-2.47 0.99-1.9 2.04-3.77 3.17-5.59 0.66-1.05 1.24-2.16 1.89-3.22 1.76-2.86 3.47-5.74 5.34-8.54 2.07-3.11 4.07-6.26 6.25-9.29 2.21-3.07 4.42-6.15 6.75-9.14 0.76-0.98 1.62-1.87 2.35-2.88 0.91-1.27 1.87-2.5 2.89-3.69 1.37-1.61 2.72-3.24 4.11-4.82 0.51-0.58 1.09-1.1 1.61-1.69 0.9-1.02 1.74-2.09 2.68-3.08 3.06-3.22 6.15-6.41 9.42-9.42 0.66-0.61 1.26-1.3 1.98-1.82 0.75-0.54 1.25-1.33 2.1-1.77 0.05-0.03 0.11-0.06 0.15-0.1 0.32-0.25 0.51-0.68 0.86-0.93 0.03-0.02 0.06-0.04 0.08-0.06 0.02-0.12 0.06-0.22 0.12-0.28 0.06-0.07 0.13-0.11 0.23-0.12 0.06 0 0.14 0 0.22 0.02 0.11-0.09 0.22-0.19 0.33-0.28 0.15-0.1 0.27-0.18 0.4-0.27 0.66-0.48 1.25-1.03 1.86-1.59 0.94-0.86 1.98-1.61 2.98-2.39 4.03-3.13 8.28-5.94 12.66-8.55 0.5-0.29 1.02-0.53 1.53-0.8 1.53-0.82 3.03-1.69 4.58-2.45 4.03-1.99 8.22-3.58 12.56-4.75 2.24-0.6 4.5-1.07 6.8-1.39 2.79-0.38 5.61-0.54 8.42-0.37 3.07 0.19 6.1 0.67 9.03 1.63 0.15 0.05 0.28 0.06 0.41-0.02-0.25-0.27-0.63-0.27-0.94-0.41h0.03z" fill="#f10"/>
<path d="m303.89 249.77c0.5-0.39 0.5-0.43 0-0.82-1.16-0.93-2.4-1.74-3.67-2.51-4.24-2.57-8.77-4.53-13.41-6.23-1.06-0.39-2.09-0.86-3.22-1.06-0.31-0.35-0.77-0.38-1.17-0.51-4.33-1.44-8.74-2.62-13.16-3.75-0.37-0.03-0.73-0.11-1.05-0.29-2.07-0.45-4.14-0.91-6.2-1.36-3.83-0.83-7.68-1.55-11.54-2.2-2.86-0.48-5.73-0.93-8.6-1.36-2.24-0.33-4.48-0.67-6.74-0.83-0.37-0.06-0.74-0.13-1.12-0.18-7.91-0.97-15.83-1.7-23.78-2.25-5.19-0.35-10.38-0.63-15.58-0.83-6.79-0.26-13.59-0.38-20.39-0.38-8.43 0-16.85 0.21-25.26 0.62-9.72 0.47-19.42 1.21-29.09 2.29-1.58 0.18-3.18 0.28-4.74 0.62-0.32-0.09-0.63 0-0.95 0.03-6.89 0.85-13.75 1.9-20.57 3.19-4.03 0.76-8.04 1.6-12.02 2.55l-0.08 0.13s-1.03 14.82 1.25 29.29c3.93 0.93 7.88 1.76 11.84 2.5 3.54 0.66 7.09 1.29 10.66 1.8 5 0.72 10.01 1.45 15.04 1.97 4.89 0.51 9.77 1.04 14.67 1.4 2.9 0.21 5.79 0.46 8.69 0.63 4.29 0.25 8.59 0.46 12.88 0.61 3.92 0.14 7.84 0.25 11.76 0.3 6.27 0.08 12.55 0.05 18.82-0.08 6.04-0.13 12.08-0.36 18.11-0.7 7.19-0.4 14.37-0.97 21.54-1.71 10.93-1.13 21.8-2.65 32.57-4.8 9.41-1.88 18.71-4.18 27.73-7.5 3.93-1.44 7.78-3.09 11.44-5.13 1.86-1.03 3.66-2.15 5.34-3.46v0.01z" fill="url(#a)" opacity=".48"/>
</g>
</svg>
