<?xml version="1.0" encoding="UTF-8" standalone="no"?>
<svg width="100%" height="100%" viewBox="0 0 2500 2500" version="1.1" xmlns="http://www.w3.org/2000/svg" xmlns:xlink="http://www.w3.org/1999/xlink" xml:space="preserve" style="fill-rule:evenodd;clip-rule:evenodd;stroke-linejoin:round;stroke-miterlimit:2;">
    <g id="_2090755387392">
        <path d="M1250,0C1940,0 2500,560 2500,1250C2500,1940 1940,2500 1250,2500C560,2500 0,1940 0,1250C0,560 560,0 1250,0Z" style="fill:url(#_Linear1);fill-rule:nonzero;"/>
        <g>
            <g>
                <g>
                    <clipPath id="_clip2">
                        <path d="M1249,1472L692,1154L677,1177C506,1440 544,1784 769,2005C1034,2265 1464,2265 1729,2005C1954,1784 1992,1440 1821,1177L1806,1154L1249,1472Z"/>
                    </clipPath>
                    <g clip-path="url(#_clip2)">
                        <g>
                            <circle cx="1249" cy="1541" r="679" style="fill:url(#_Radial3);"/>
                        </g>
                    </g>
                </g>
            </g>
        </g>
        <path d="M1249,1472L692,1154L677,1177C506,1440 544,1784 769,2005C1034,2265 1464,2265 1729,2005C1954,1784 1992,1440 1821,1177L1806,1154L1249,1472Z" style="fill:none;fill-rule:nonzero;"/>
        <path d="M1249,762L769,1036L1249,1310L1729,1036L1249,762Z" style="fill:url(#_Radial4);fill-rule:nonzero;"/>
        <path d="M1250,833L692,1154L1249,1472L1805,1154L1250,833Z" style="fill:url(#_Radial5);fill-rule:nonzero;"/>
        <path d="M1249,300L769,1036L1249,1310L1249,300Z" style="fill:url(#_Linear6);fill-rule:nonzero;"/>
        <path d="M1249,1310L1729,1036L1249,300L1249,1310Z" style="fill:url(#_Linear7);fill-rule:nonzero;"/>
    </g>
    <defs>
        <linearGradient id="_Linear1" x1="0" y1="0" x2="1" y2="0" gradientUnits="userSpaceOnUse" gradientTransform="matrix(1.53081e-13,2500,-2500,1.53081e-13,1250,0)"><stop offset="0" style="stop-color:rgb(248,151,145);stop-opacity:1"/><stop offset="1" style="stop-color:rgb(247,200,130);stop-opacity:1"/></linearGradient>
        <radialGradient id="_Radial3" cx="0" cy="0" r="1" gradientUnits="userSpaceOnUse" gradientTransform="matrix(-7.38158,-906.741,1080.72,-15.752,1247.72,2096.76)"><stop offset="0" style="stop-color:rgb(197,198,171);stop-opacity:1"/><stop offset="1" style="stop-color:rgb(121,133,171);stop-opacity:1"/></radialGradient>
        <radialGradient id="_Radial4" cx="0" cy="0" r="1" gradientUnits="userSpaceOnUse" gradientTransform="matrix(24,0,0,24,1249,1036)"><stop offset="0" style="stop-color:rgb(0,102,255);stop-opacity:0"/><stop offset="1" style="stop-color:rgb(0,194,255);stop-opacity:0.4"/></radialGradient>
        <radialGradient id="_Radial5" cx="0" cy="0" r="1" gradientUnits="userSpaceOnUse" gradientTransform="matrix(28.008,0,0,28.008,1248.5,1152.5)"><stop offset="0" style="stop-color:rgb(174,230,249);stop-opacity:0.85"/><stop offset="1" style="stop-color:rgb(200,214,220);stop-opacity:1"/></radialGradient>
        <linearGradient id="_Linear6" x1="0" y1="0" x2="1" y2="0" gradientUnits="userSpaceOnUse" gradientTransform="matrix(6.12323e-14,1000,-1000,6.12323e-14,1009,250)"><stop offset="0" style="stop-color:rgb(119,212,255);stop-opacity:1"/><stop offset="1" style="stop-color:rgb(147,214,242);stop-opacity:0.89"/></linearGradient>
        <linearGradient id="_Linear7" x1="0" y1="0" x2="1" y2="0" gradientUnits="userSpaceOnUse" gradientTransform="matrix(6.12323e-14,1000,-1000,6.12323e-14,1489,250)"><stop offset="0" style="stop-color:rgb(80,106,172);stop-opacity:1"/><stop offset="1" style="stop-color:rgb(150,207,239);stop-opacity:0.82"/></linearGradient>
    </defs>
</svg>
