<?xml version="1.0" encoding="UTF-8" standalone="no"?>
<svg width="256px" height="256px" viewBox="0 0 2500 2500" version="1.1" xmlns="http://www.w3.org/2000/svg" xmlns:xlink="http://www.w3.org/1999/xlink" xml:space="preserve" style="fill-rule:evenodd;clip-rule:evenodd;stroke-linejoin:round;stroke-miterlimit:2;">
    <path d="M1250,2500C1938,2500 2500,1937 2500,1250C2500,562 1937,0 1250,0C562,0 0,563 0,1250C0,1938 563,2500 1250,2500Z" style="fill:url(#_Linear1);fill-rule:nonzero;"/>
    <path d="M1612,1520L1966,1316C1985,1305 1996,1285 1996,1263L1996,855C1996,833 1984,813 1966,802L1612,598C1593,587 1570,587 1551,598L1197,802C1178,813 1167,833 1167,855L1167,1585L919,1728L671,1585L671,1299L919,1156L1083,1250L1083,1058L950,981C941,976 930,973 920,973C909,973 899,976 890,981L536,1185C517,1196 506,1216 506,1238L506,1646C506,1668 518,1688 536,1699L890,1903C909,1914 932,1914 951,1903L1305,1699C1324,1688 1335,1668 1335,1646L1335,916L1339,913L1583,772L1831,915L1831,1201L1583,1344L1420,1250L1420,1442L1553,1519C1572,1530 1595,1530 1614,1519L1612,1520Z" style="fill:white;fill-rule:nonzero;"/>
    <defs>
        <linearGradient id="_Linear1" x1="0" y1="0" x2="1" y2="0" gradientUnits="userSpaceOnUse" gradientTransform="matrix(2578,1581,-1581,2578,-457.234,203.012)"><stop offset="0" style="stop-color:rgb(162,41,197);stop-opacity:1"/><stop offset="1" style="stop-color:rgb(123,63,228);stop-opacity:1"/></linearGradient>
    </defs>
</svg>
