<?xml version="1.0" encoding="UTF-8"?>
<svg fill="none" width="256px" height="256px" viewBox="0 0 60 60" xmlns="http://www.w3.org/2000/svg">
<g clip-path="url(#a)">
<path d="m19.485 11.208c2.6483-2.5942 6.885-2.5942 9.5333 0l6.2696 6.1417c2.7267 2.671 2.7267 7.0609 0 9.7319l-10.926 10.704 7.8362 7.6763c1.493 1.4625 1.5177 3.8584 0.0552 5.3514-1.4626 1.493-3.8585 1.5177-5.3515 0.0552l-18.984-18.597c-2.7266-2.671-2.7266-7.0608 0-9.7318l11.568-11.332zm-0.5313 21.28 10.486-10.272-5.1881-5.0822-10.486 10.272 5.1881 5.0822z" clip-rule="evenodd" fill="#3CEAAA" fill-rule="evenodd"/>
<path d="m35.379 16.397c2.6483-2.5942 6.885-2.5942 9.5333 0l6.2696 6.1417c2.7267 2.671 2.7267 7.0609 0 9.7319l-18.984 18.597c-1.493 1.4625-3.8889 1.4378-5.3514-0.0552-1.4626-1.493-1.4379-3.8889 0.0551-5.3514l7.8363-7.6763-5.6286-5.5137c-2.7266-2.671-2.7266-7.0609 0-9.7319l6.2697-6.1417zm4.7666 16.09 5.1881-5.0823-5.1881-5.0822-5.1881 5.0822 5.1881 5.0823z" clip-rule="evenodd" fill="#03BCE4" fill-rule="evenodd"/>
<path d="m34.955 27.418-5.5112-5.2347-5.2861 5.1915 5.3804 5.3527 5.4169-5.3095z" fill="#00A4E1" opacity=".95"/>
</g>
<defs>
<clipPath id="a">
<rect width="60" height="60" fill="#fff"/>
</clipPath>
</defs>
</svg>
