<?xml version="1.0" encoding="UTF-8"?>
<svg fill="none" viewBox="0 0 540 540" xmlns="http://www.w3.org/2000/svg">
<path d="m91 286.38c4.981 7.905 14.43 15.698 40.178 15.66h250.48c9.705 0 20.656 7.271 24.502 16.295l41.532 98.329c3.81 9.023-0.989 16.332-10.695 16.332h-256.7c-15.273-0.969-29.446-4.997-36.002-20.508l-53.29-126.11zm215.39-203.41 42.01 99.559c3.809 9.061 1.428 22.112-5.348 29.196l-60.907 64.92h-138.48c-21.938 0.26-34.94-8.204-16.298-28.825l159.91-168.39c6.739-7.0847 15.309-5.5186 19.117 3.5424z" clip-rule="evenodd" fill="url(#a)" fill-rule="evenodd"/>
<defs>
<linearGradient id="a" x1="427.99" x2="161.69" y1="149.45" y2="485.84" gradientUnits="userSpaceOnUse">
<stop stop-color="#63E1D6" offset="0"/>
<stop stop-color="#17B89B" offset="1"/>
</linearGradient>
</defs>
</svg>
